<?xml version="1.0" encoding="UTF-8"?>
<svg version="1.1" xmlns="http://www.w3.org/2000/svg" width="396" height="310">
<path d="M0 0 C130.68 0 261.36 0 396 0 C396 102.3 396 204.6 396 310 C265.32 310 134.64 310 0 310 C0 207.7 0 105.4 0 0 Z " fill="#020202" transform="translate(0,0)"/>
<path d="M0 0 C3.43626992 1.42376521 5.71046879 3.34504273 8.33140945 5.96598339 C9.20640945 8.77848339 9.20640945 8.77848339 9.33140945 10.96598339 C10.13578445 11.12067089 10.13578445 11.12067089 10.95640945 11.27848339 C14.00257025 12.16026678 16.58668939 13.38014513 19.33140945 14.96598339 C19.66140945 15.95598339 19.99140945 16.94598339 20.33140945 17.96598339 C20.99140945 18.29598339 21.65140945 18.62598339 22.33140945 18.96598339 C25.33140945 23.46598339 25.33140945 23.46598339 25.33140945 25.96598339 C25.99140945 25.96598339 26.65140945 25.96598339 27.33140945 25.96598339 C27.33140945 26.62598339 27.33140945 27.28598339 27.33140945 27.96598339 C27.95015945 28.06910839 28.56890945 28.17223339 29.20640945 28.27848339 C31.33140945 28.96598339 31.33140945 28.96598339 33.33140945 31.96598339 C33.33140945 32.95598339 33.33140945 33.94598339 33.33140945 34.96598339 C33.95015945 35.04848339 34.56890945 35.13098339 35.20640945 35.21598339 C37.33140945 35.96598339 37.33140945 35.96598339 38.58140945 38.02848339 C38.82890945 38.66785839 39.07640945 39.30723339 39.33140945 39.96598339 C39.99140945 39.96598339 40.65140945 39.96598339 41.33140945 39.96598339 C42.09453445 40.74973339 42.85765945 41.53348339 43.64390945 42.34098339 C46.27443325 44.91033222 48.00016788 45.67050056 51.33140945 46.96598339 C51.66140945 47.95598339 51.99140945 48.94598339 52.33140945 49.96598339 C52.99140945 50.29598339 53.65140945 50.62598339 54.33140945 50.96598339 C56.21282024 53.86649169 57.83235054 56.85255334 59.33140945 59.96598339 C59.99140945 59.96598339 60.65140945 59.96598339 61.33140945 59.96598339 C63.45640945 61.77848339 63.45640945 61.77848339 65.33140945 63.96598339 C65.33140945 64.95598339 65.33140945 65.94598339 65.33140945 66.96598339 C65.95015945 67.04848339 66.56890945 67.13098339 67.20640945 67.21598339 C69.33140945 67.96598339 69.33140945 67.96598339 70.58140945 70.02848339 C70.82890945 70.66785839 71.07640945 71.30723339 71.33140945 71.96598339 C71.99140945 71.96598339 72.65140945 71.96598339 73.33140945 71.96598339 C74.09453445 72.74973339 74.85765945 73.53348339 75.64390945 74.34098339 C78.27443325 76.91033222 80.00016788 77.67050056 83.33140945 78.96598339 C83.66140945 79.95598339 83.99140945 80.94598339 84.33140945 81.96598339 C84.99140945 82.29598339 85.65140945 82.62598339 86.33140945 82.96598339 C86.72328445 83.70848339 87.11515945 84.45098339 87.51890945 85.21598339 C89.56629929 88.32236796 91.59663861 89.72222259 94.7103157 91.65738964 C96.33140945 92.96598339 96.33140945 92.96598339 97.2884407 94.92301464 C98.59270243 97.47780447 100.10451609 98.48090585 102.45640945 100.09098339 C104.65172195 101.59879589 104.65172195 101.59879589 106.33140945 102.96598339 C106.33140945 103.62598339 106.33140945 104.28598339 106.33140945 104.96598339 C106.99140945 104.96598339 107.65140945 104.96598339 108.33140945 104.96598339 C108.67172195 105.89410839 108.67172195 105.89410839 109.01890945 106.84098339 C110.71557388 109.58796389 112.38392657 109.83233613 115.33140945 110.96598339 C115.66140945 111.95598339 115.99140945 112.94598339 116.33140945 113.96598339 C116.99140945 114.29598339 117.65140945 114.62598339 118.33140945 114.96598339 C120.21282024 117.86649169 121.83235054 120.85255334 123.33140945 123.96598339 C123.99140945 123.96598339 124.65140945 123.96598339 125.33140945 123.96598339 C129.33140945 128.43657163 129.33140945 128.43657163 129.33140945 130.96598339 C129.88183914 131.03301464 130.43226883 131.10004589 130.9993782 131.16910839 C134.31016591 132.30043283 136.15473516 134.28084327 138.64390945 136.71598339 C139.54754227 137.57707714 140.45117508 138.43817089 141.3821907 139.32535839 C143.33140945 141.96598339 143.33140945 141.96598339 143.1243782 144.79410839 C142.86269852 145.51082714 142.60101883 146.22754589 142.33140945 146.96598339 C141.67140945 146.96598339 141.01140945 146.96598339 140.33140945 146.96598339 C140.06328445 147.72910839 139.79515945 148.49223339 139.51890945 149.27848339 C138.37345699 151.87082318 137.56725765 153.26673876 135.33140945 154.96598339 C134.34140945 154.96598339 133.35140945 154.96598339 132.33140945 154.96598339 C132.08390945 155.54348339 131.83640945 156.12098339 131.58140945 156.71598339 C130.14840957 159.29538318 128.54716269 161.02719931 126.33140945 162.96598339 C125.67140945 162.96598339 125.01140945 162.96598339 124.33140945 162.96598339 C124.06328445 163.72910839 123.79515945 164.49223339 123.51890945 165.27848339 C122.37345699 167.87082318 121.56725765 169.26673876 119.33140945 170.96598339 C118.34140945 170.96598339 117.35140945 170.96598339 116.33140945 170.96598339 C116.08390945 171.54348339 115.83640945 172.12098339 115.58140945 172.71598339 C114.14840957 175.29538318 112.54716269 177.02719931 110.33140945 178.96598339 C109.67140945 178.96598339 109.01140945 178.96598339 108.33140945 178.96598339 C108.06328445 179.72910839 107.79515945 180.49223339 107.51890945 181.27848339 C106.37345699 183.87082318 105.56725765 185.26673876 103.33140945 186.96598339 C102.34140945 186.96598339 101.35140945 186.96598339 100.33140945 186.96598339 C100.10453445 187.52285839 99.87765945 188.07973339 99.64390945 188.65348339 C97.36860898 192.66234613 94.01866919 195.41318752 90.45640945 198.27848339 C88.16119946 200.15847952 86.24813163 202.1400175 84.33140945 204.40348339 C80.74144043 208.58236868 76.97897125 212.57542729 73.14390945 216.52848339 C72.53740555 217.17293407 71.93090164 217.81738476 71.30601883 218.48136425 C70.72271805 219.07570263 70.13941727 219.67004101 69.5384407 220.28238964 C69.01741776 220.82323193 68.49639481 221.36407421 67.95958328 221.92130566 C66.33140945 222.96598339 66.33140945 222.96598339 64.2806282 222.77921581 C61.20307178 221.49523029 59.62306761 219.25864947 57.51890945 216.71598339 C56.70808914 215.76207714 55.89726883 214.80817089 55.0618782 213.82535839 C53.33140945 210.96598339 53.33140945 210.96598339 53.37092972 208.66202831 C54.70435478 204.91913428 57.16066516 202.65825681 59.96861649 199.96988964 C60.55558304 199.39197674 61.14254959 198.81406384 61.74730301 198.21863842 C63.02035673 196.96747054 64.29792852 195.72088685 65.57946014 194.47840405 C67.60574699 192.51245039 69.61837841 190.53342619 71.62776566 188.55021191 C77.34211119 182.91538579 83.08156239 177.3063737 88.82701492 171.70328808 C92.34195581 168.27362518 95.84228002 164.829582 99.33430481 161.3765974 C100.66906405 160.06301087 102.00962253 158.75529073 103.3559494 157.45356274 C105.23528558 155.63640384 107.09569137 153.80171341 108.95299149 151.96207714 C109.51606003 151.42686443 110.07912857 150.89165173 110.6592598 150.34022045 C112.38313982 148.67680246 112.38313982 148.67680246 114.33140945 145.96598339 C114.14625284 141.39734714 112.17615775 139.3120282 109.02408218 136.1641798 C108.57277571 135.7080445 108.12146924 135.25190919 107.65648681 134.78195161 C106.14431967 133.25852793 104.61829976 131.74980211 103.0919075 130.24064159 C102.00382235 129.15041022 100.91660376 128.0593134 99.83018875 126.96741772 C96.87843821 124.00597332 93.91433937 121.05717916 90.94761252 118.11074758 C87.84524633 115.02594914 84.7534296 111.93061062 81.6602211 108.83663464 C76.46406844 103.64235506 71.26022828 98.45587978 66.05138016 93.274333 C60.02864316 87.28304682 54.01642286 81.28137188 48.01012582 75.27360755 C42.23301002 69.49527106 36.45019862 63.72267184 30.66418266 57.95324802 C28.20139096 55.49751835 25.74030567 53.04009701 23.28051186 50.58136463 C20.38373728 47.68659912 17.48191525 44.79698848 14.57610703 41.91129208 C13.51015933 40.85118598 12.44589583 39.78938331 11.38344383 38.72577381 C9.93342862 37.27477686 8.47741547 35.8300785 7.01968765 34.38683605 C6.20612147 33.57662156 5.39255529 32.76640707 4.55433559 31.93164062 C2.52969309 30.1413188 0.80405268 29.01429153 -1.66859055 27.96598339 C-2.02674583 28.81294702 -2.02674583 28.81294702 -2.39213657 29.67702103 C-3.94718657 32.46556726 -5.81921508 34.34375847 -8.0918541 36.58938122 C-9.02160553 37.51321102 -9.95135696 38.43704082 -10.90928268 39.38886547 C-11.94250873 40.40544524 -12.97580579 41.42195284 -14.00916672 42.4383955 C-15.09528626 43.51412667 -16.18092198 44.59034652 -17.26610947 45.66701794 C-19.6021779 47.98321735 -21.94111823 50.29646392 -24.28216743 52.60762882 C-27.98154307 56.26088169 -31.67115595 59.92388631 -35.35885239 63.58892345 C-45.84577623 74.00897033 -56.34089917 84.4206573 -66.85682297 94.81144238 C-72.66574791 100.55140433 -78.46396735 106.30195375 -84.25039464 112.06459719 C-87.9152157 115.71319003 -91.59282056 119.34822896 -95.28021085 122.97400367 C-97.56776402 125.22961497 -99.84268352 127.49763639 -102.11412621 129.76945972 C-103.17196722 130.82244444 -104.23498934 131.8702527 -105.30341721 132.91249371 C-106.75807676 134.33296137 -108.19278686 135.77377456 -109.62627792 137.21560192 C-110.43577991 138.01697551 -111.24528189 138.81834909 -112.07931423 139.64400673 C-113.9514918 141.86808841 -113.9514918 141.86808841 -113.4989481 144.65182877 C-112.08769604 148.58490008 -109.29019698 150.96103527 -106.35609055 153.84098339 C-105.77407883 154.44684277 -105.19206711 155.05270214 -104.59241867 155.67692089 C-104.02329758 156.24410839 -103.45417648 156.81129589 -102.8678093 157.39567089 C-102.09183395 158.17273388 -102.09183395 158.17273388 -101.30018234 158.96549511 C-99.73947179 160.13554217 -99.73947179 160.13554217 -97.92853928 159.86915112 C-94.561616 158.52359119 -92.3719806 156.06075938 -89.87781906 153.51578808 C-89.30980576 152.94821285 -88.74179245 152.38063763 -88.15656662 151.79586315 C-86.27967873 149.91688482 -84.4136471 148.02749647 -82.5474968 146.13785839 C-81.24305401 144.82781696 -79.93794474 143.51843886 -78.63219833 142.20969677 C-75.1932037 138.75924469 -71.76330328 135.29988797 -68.33521652 131.83860302 C-64.85731886 128.33013731 -61.37103576 124.8300272 -57.88538742 121.32926464 C-52.24804273 115.66555796 -46.61582625 109.99681236 -40.9904747 104.32119274 C-39.55056909 102.86873973 -38.10960578 101.41733552 -36.66859055 99.96598339 C-35.76636261 99.04384045 -34.86413467 98.1216975 -33.9345665 97.17161083 C-31.75180169 95.04697842 -30.14767511 93.97394824 -27.35609055 92.84098339 C-26.65870773 92.54965527 -25.96132492 92.25832714 -25.2428093 91.95817089 C-24.39331711 91.63074902 -23.54382492 91.30332714 -22.66859055 90.96598339 C-21.47105148 90.43875683 -20.27351242 89.91153027 -19.0396843 89.36832714 C-14.06108363 87.51739082 -9.30257373 87.55246337 -4.04359055 87.65348339 C-3.07735764 87.66548779 -2.11112473 87.67749218 -1.11561203 87.68986034 C20.13324666 88.10629615 20.13324666 88.10629615 28.33140945 94.96598339 C29.60456447 95.54983428 30.89723229 96.09312729 32.20640945 96.59098339 C33.23765945 97.04473339 34.26890945 97.49848339 35.33140945 97.96598339 C35.66140945 98.95598339 35.99140945 99.94598339 36.33140945 100.96598339 C36.99140945 100.96598339 37.65140945 100.96598339 38.33140945 100.96598339 C38.33140945 101.62598339 38.33140945 102.28598339 38.33140945 102.96598339 C38.99140945 102.96598339 39.65140945 102.96598339 40.33140945 102.96598339 C40.33140945 103.62598339 40.33140945 104.28598339 40.33140945 104.96598339 C41.32140945 105.29598339 42.31140945 105.62598339 43.33140945 105.96598339 C53.88495737 119.67824982 58.02804792 134.8247695 56.33140945 151.96598339 C54.0735922 165.63780072 54.0735922 165.63780072 49.33140945 169.96598339 C48.690098 171.36622674 48.09047535 172.78585255 47.51890945 174.21598339 C42.85766909 183.83241622 34.14436503 191.36131663 26.4915657 198.64176464 C25.88699539 199.22337353 25.28242508 199.80498241 24.65953445 200.40421581 C23.50565628 201.50655878 22.33805786 202.59476293 21.1556282 203.66642284 C19.37732182 205.29311035 19.37732182 205.29311035 17.33140945 207.96598339 C17.27986063 211.6294918 18.59407581 213.48683475 21.03111649 216.02457714 C22.20801924 217.16041854 23.39469708 218.28618929 24.58922195 219.40348339 C25.86679163 220.64022921 27.14412842 221.87721565 28.4212532 223.11442089 C30.44231164 225.04829255 32.46802359 226.97698392 34.49888992 228.9005537 C36.45842771 230.7637519 38.39937133 232.64482884 40.33922195 234.52848339 C40.95371201 235.09945751 41.56820206 235.67043163 42.20131302 236.258708 C43.89049149 237.90738964 43.89049149 237.90738964 46.33140945 240.96598339 C46.29255661 245.43168166 44.31231267 247.74974571 41.33140945 250.96598339 C38.35835153 253.75543204 35.45294162 256.33433647 31.8900032 258.34098339 C28.98066354 260.18874721 27.08014259 262.23593691 24.83140945 264.84098339 C21.77922142 268.35529848 18.64566174 271.69713182 15.33140945 274.96598339 C14.42262039 275.88637402 13.51383133 276.80676464 12.5775032 277.75504589 C11.65066727 278.69090527 10.72383133 279.62676464 9.76890945 280.59098339 C9.30033524 281.06793652 8.83176102 281.54488964 8.34898758 282.03629589 C7.02898574 283.36552851 5.68093635 284.66673693 4.33140945 285.96598339 C3.66238602 286.61309277 2.99336258 287.26020214 2.3040657 287.92692089 C0.33140945 288.96598339 0.33140945 288.96598339 -1.94652939 288.39542675 C-5.41926804 286.57177808 -7.6593357 284.0494871 -10.19422531 281.13395214 C-11.25828485 279.94641922 -12.32443714 278.76075867 -13.39249802 277.57682323 C-13.93557224 276.97319958 -14.47864647 276.36957592 -15.03817749 275.74766064 C-17.55848831 272.99352394 -20.17720713 270.34363076 -22.81678391 267.70426464 C-23.33456689 267.18594067 -23.85234987 266.66761669 -24.38582325 266.13358593 C-26.0080681 264.51324152 -27.63318857 262.89581732 -29.2584343 261.27848339 C-30.41780039 260.12099088 -31.57693962 258.96327108 -32.73586655 257.80533886 C-35.74498387 254.79998422 -38.75709071 251.79764443 -41.76990891 248.79600048 C-44.84019576 245.7360214 -47.90758932 242.67314494 -50.97523117 239.61051464 C-56.3598818 234.23535466 -61.74699454 228.86267365 -67.13598251 223.4918623 C-68.87037065 221.76208242 -70.59822905 220.02573759 -72.32046127 218.28385448 C-74.64909064 215.98523202 -77.07958676 213.96321488 -79.66859055 211.96598339 C-79.17894168 207.47404915 -77.72515583 205.53884299 -74.5318718 202.40690136 C-73.215457 201.10062283 -73.215457 201.10062283 -71.87244797 199.76795483 C-70.90872344 198.83129713 -69.94493612 197.89470403 -68.98109055 196.95817089 C-67.99741071 195.98703894 -67.01475876 195.01486482 -66.0330925 194.0416975 C-63.45094017 191.48610911 -60.85788439 188.94190269 -58.26148605 186.40079784 C-54.10341348 182.3290796 -49.95879142 178.24378009 -45.82053757 174.15193081 C-44.37328953 172.72512692 -42.91940997 171.30534302 -41.46473312 169.88611889 C-40.14831833 168.58929684 -40.14831833 168.58929684 -38.8053093 167.26627636 C-38.02889084 166.50636395 -37.25247238 165.74645153 -36.45252609 164.96351147 C-34.45867397 162.99633598 -34.45867397 162.99633598 -33.66859055 159.96598339 C-33.00859055 159.96598339 -32.34859055 159.96598339 -31.66859055 159.96598339 C-31.44171555 159.36785839 -31.21484055 158.76973339 -30.98109055 158.15348339 C-29.66859055 155.96598339 -29.66859055 155.96598339 -27.35706711 154.60734081 C-24.48747057 152.85540678 -22.6025891 150.99399968 -20.34046555 148.51676464 C-19.13970383 147.24542675 -19.13970383 147.24542675 -17.9146843 145.94840527 C-16.25201013 144.16994237 -14.60344464 142.37818269 -12.9693718 140.57340527 C-6.97299721 134.2940018 -6.97299721 134.2940018 -3.17640305 133.33927441 C1.60096854 133.26487112 5.30941198 134.25113509 9.33140945 136.96598339 C10.62412959 140.8441438 11.35857967 143.98943115 10.33140945 147.96598339 C8.71828079 150.17415905 8.71828079 150.17415905 6.53306961 152.50968456 C5.30224655 153.82602383 5.30224655 153.82602383 4.04655838 155.1689558 C-0.21051302 159.55440444 -4.53795622 163.86067854 -8.91052246 168.13025379 C-11.71064287 170.86840996 -14.49460463 173.6229589 -17.2818718 176.37418652 C-20.80532971 179.84959616 -24.33336824 183.32003812 -27.87611008 186.77579784 C-30.76530303 189.59488764 -33.6397468 192.42828482 -36.50481415 195.27188206 C-37.59433994 196.3478206 -38.68926055 197.41832467 -39.78961182 198.48318958 C-41.31885242 199.96433638 -42.82857152 201.46300629 -44.33509445 202.96720409 C-45.19841385 203.81418362 -46.06173325 204.66116314 -46.95121384 205.53380871 C-48.93135671 207.82751966 -48.93135671 207.82751966 -48.61449814 210.59246349 C-47.63107358 213.0601229 -46.84233865 214.20410569 -44.86756516 215.94108105 C-44.27875061 216.47212444 -43.68993607 217.00316784 -43.08327866 217.55030346 C-42.43983002 218.11286846 -41.79638138 218.67543346 -41.1334343 219.25504589 C-39.7559647 220.49891531 -38.38088789 221.74543852 -37.00794601 222.9943037 C-36.29225449 223.64338696 -35.57656296 224.29247021 -34.83918381 224.96122265 C-31.27475477 228.25333063 -27.84719932 231.67804319 -24.4224968 235.11442089 C-23.74721939 235.79079601 -23.07194199 236.46717113 -22.37620163 237.16404247 C-20.32574324 239.22095567 -18.27834285 241.28087969 -16.23109055 243.34098339 C-14.80619957 244.77090932 -13.38107033 246.20059787 -11.95569992 247.63004589 C-8.52392662 251.07264401 -5.09533769 254.51838253 -1.66859055 257.96598339 C3.40357848 256.43623271 6.53326682 254.41146764 10.20640945 250.65348339 C10.70398758 250.17975292 11.2015657 249.70602245 11.71422195 249.21793652 C13.81867511 247.10481116 15.22705722 245.57512231 15.73814774 242.59171581 C15.17649252 238.96590439 13.62808243 237.67683001 11.01890945 235.13004589 C10.10754227 234.23028027 9.19617508 233.33051464 8.2571907 232.40348339 C7.28203656 231.46587285 6.30677552 230.52837347 5.33140945 229.59098339 C4.39683914 228.67059277 3.46226883 227.75020214 2.4993782 226.80192089 C-2.73786854 221.67454645 -8.08175759 216.71038917 -13.66859055 211.96598339 C-13.1613926 207.7010814 -11.97914096 205.78915711 -8.93079758 202.80582714 C-8.1397261 202.02151318 -7.34865463 201.23719921 -6.5336113 200.42911816 C-5.67323257 199.59565868 -4.81285385 198.76219921 -3.92640305 197.90348339 C-3.04709122 197.0345747 -2.16777939 196.16566601 -1.26182175 195.27042675 C1.07449766 192.96370526 3.41863075 190.66535975 5.76768875 188.37162304 C9.07153844 185.14374003 12.36518983 181.90553972 15.65321732 178.66154003 C17.40282724 176.93638381 19.15775678 175.21660223 20.91853714 173.50284863 C21.71591293 172.71853466 22.51328873 171.9342207 23.33482742 171.12613964 C24.38620392 170.09952221 24.38620392 170.09952221 25.45882034 169.05216503 C33.7693775 159.79368346 34.20523034 149.08134693 33.8665657 137.28238964 C33.20726427 127.80596425 28.2591233 122.59246018 21.58140945 116.34098339 C19.05212194 114.17428604 17.51506782 113.02720285 14.33140945 111.96598339 C14.33140945 111.30598339 14.33140945 110.64598339 14.33140945 109.96598339 C13.38265945 109.98660839 12.43390945 110.00723339 11.45640945 110.02848339 C8.33140945 109.96598339 8.33140945 109.96598339 6.33140945 108.96598339 C3.97887106 108.86903029 1.62343995 108.83619289 -0.73109055 108.84098339 C-2.00081711 108.83840527 -3.27054367 108.83582714 -4.5787468 108.83317089 C-7.53959755 108.61162755 -7.53959755 108.61162755 -8.66859055 109.96598339 C-10.66817418 110.00679122 -12.66904309 110.00852695 -14.66859055 109.96598339 C-14.66859055 110.62598339 -14.66859055 111.28598339 -14.66859055 111.96598339 C-15.22546555 112.02785839 -15.78234055 112.08973339 -16.35609055 112.15348339 C-18.94624684 112.87136314 -18.94624684 112.87136314 -21.16859055 115.52848339 C-23.66859055 117.96598339 -23.66859055 117.96598339 -27.66859055 117.96598339 C-28.16359055 119.45098339 -28.16359055 119.45098339 -28.66859055 120.96598339 C-29.65859055 121.46098339 -29.65859055 121.46098339 -30.66859055 121.96598339 C-31.13265305 122.95598339 -31.13265305 122.95598339 -31.60609055 123.96598339 C-32.66859055 125.96598339 -32.66859055 125.96598339 -35.66859055 126.96598339 C-36.60493799 128.37050456 -37.5364628 129.77867228 -38.43421555 131.20817089 C-41.10460292 135.01093772 -44.51761318 138.91094126 -48.72327805 140.97379589 C-50.88811903 142.07795173 -51.84881316 143.1615065 -53.29359055 145.09098339 C-54.07734055 146.03973339 -54.86109055 146.98848339 -55.66859055 147.96598339 C-56.32859055 147.96598339 -56.98859055 147.96598339 -57.66859055 147.96598339 C-57.66859055 148.62598339 -57.66859055 149.28598339 -57.66859055 149.96598339 C-59.31861882 151.31985275 -60.98602925 152.65276482 -62.66859055 153.96598339 C-62.99859055 154.62598339 -63.32859055 155.28598339 -63.66859055 155.96598339 C-64.32859055 155.96598339 -64.98859055 155.96598339 -65.66859055 155.96598339 C-65.79234055 156.58473339 -65.91609055 157.20348339 -66.04359055 157.84098339 C-66.66859055 159.96598339 -66.66859055 159.96598339 -68.66859055 161.96598339 C-69.65859055 161.96598339 -70.64859055 161.96598339 -71.66859055 161.96598339 C-71.66859055 162.62598339 -71.66859055 163.28598339 -71.66859055 163.96598339 C-72.32859055 163.96598339 -72.98859055 163.96598339 -73.66859055 163.96598339 C-73.66859055 164.62598339 -73.66859055 165.28598339 -73.66859055 165.96598339 C-74.32859055 165.96598339 -74.98859055 165.96598339 -75.66859055 165.96598339 C-75.66859055 166.62598339 -75.66859055 167.28598339 -75.66859055 167.96598339 C-77.54359055 170.09098339 -77.54359055 170.09098339 -79.66859055 171.96598339 C-80.32859055 171.96598339 -80.98859055 171.96598339 -81.66859055 171.96598339 C-81.66859055 172.62598339 -81.66859055 173.28598339 -81.66859055 173.96598339 C-82.45234055 174.58473339 -83.23609055 175.20348339 -84.04359055 175.84098339 C-86.5308821 177.85450513 -87.52397321 179.05241198 -88.66859055 181.96598339 C-89.65859055 181.96598339 -90.64859055 181.96598339 -91.66859055 181.96598339 C-91.75109055 182.54348339 -91.83359055 183.12098339 -91.91859055 183.71598339 C-92.91699916 186.71120923 -94.14972585 188.07683487 -96.66859055 189.96598339 C-101.50304549 190.09320589 -104.28402702 187.12490935 -107.66859055 183.96598339 C-108.32859055 182.97598339 -108.98859055 181.98598339 -109.66859055 180.96598339 C-110.65859055 180.63598339 -111.64859055 180.30598339 -112.66859055 179.96598339 C-114.4928093 178.22379589 -114.4928093 178.22379589 -116.35609055 176.09098339 C-117.29001633 175.04297558 -117.29001633 175.04297558 -118.2428093 173.97379589 C-119.66859055 171.96598339 -119.66859055 171.96598339 -119.66859055 168.96598339 C-120.65859055 168.63598339 -121.64859055 168.30598339 -122.66859055 167.96598339 C-122.66859055 166.97598339 -122.66859055 165.98598339 -122.66859055 164.96598339 C-123.51421555 164.96598339 -124.35984055 164.96598339 -125.23109055 164.96598339 C-130.3802773 163.46803815 -132.41877536 160.06895647 -135.66859055 155.96598339 C-136.89642258 154.56219433 -136.89642258 154.56219433 -138.1490593 153.13004589 C-139.39622726 151.68758495 -139.39622726 151.68758495 -140.66859055 150.21598339 C-141.45234055 149.31363964 -142.23609055 148.41129589 -143.04359055 147.48160839 C-144.66859055 144.96598339 -144.66859055 144.96598339 -144.61012268 143.17379761 C-143.19658102 139.85916048 -140.74938516 137.62404859 -138.22907639 135.12533092 C-137.65596891 134.54542678 -137.08286143 133.96552263 -136.49238706 133.36804563 C-134.56573281 131.42236617 -132.62847662 129.48760351 -130.69105148 127.55265331 C-129.30926778 126.16189563 -127.92810267 124.77052311 -126.54751205 123.37858105 C-122.79230896 119.59684195 -119.02738836 115.82492248 -115.25985241 112.05547404 C-112.11863516 108.91141126 -108.98152334 105.76326695 -105.84420705 102.6153124 C-98.44545083 95.19211811 -91.03815995 87.77751318 -83.62611008 80.36759472 C-75.97054384 72.71383254 -68.33188218 65.04348234 -60.70093131 57.36518496 C-54.15529928 50.78038619 -47.59821402 44.20714438 -41.03200936 37.64286023 C-37.10741095 33.71902834 -33.18765664 29.79063377 -29.27930069 25.85061741 C-25.60548859 22.14786058 -21.91768257 18.45965012 -18.2184391 14.78230572 C-16.86073124 13.4277474 -15.508167 12.06801164 -14.16109276 10.702878 C-12.32622873 8.84501149 -10.47399678 7.00644617 -8.61603928 5.17171764 C-7.8159732 4.34850554 -7.8159732 4.34850554 -6.99974418 3.50866288 C-3.34773873 -0.04267373 -3.34773873 -0.04267373 0 0 Z " fill="#F6F6F6" transform="translate(202.6685905456543,9.034016609191895)"/>
<path d="M0 0 C3.60706884 1.53001606 5.93303082 3.67232917 8.70173645 6.42085266 C9.15913403 6.87230799 9.6165316 7.32376333 10.08778971 7.78889912 C11.61645022 9.30024056 13.1379055 10.81862921 14.65942383 12.3371582 C15.75483506 13.42330963 16.85063966 14.50906444 17.94680786 15.5944519 C20.92051743 18.54195317 23.88756039 21.49607574 26.85263658 24.4522593 C28.70440839 26.29816669 30.55734676 28.14289516 32.41065025 29.98726463 C38.20683633 35.75611891 43.99901507 41.52895225 49.78541356 47.30762416 C56.46970943 53.98294548 63.16689647 60.6449677 69.87557393 67.29578334 C75.05899366 72.43603711 80.23089164 77.58769752 85.39411181 82.74824017 C88.4793456 85.83137413 91.56928501 88.90941853 94.67124367 91.9757328 C97.58597561 94.85761686 100.48618658 97.75334689 103.37572098 100.66048813 C104.44001969 101.72633343 105.50949346 102.78703917 106.58436775 103.8422184 C108.04774237 105.28033214 109.49107398 106.73875763 110.93318176 108.19819641 C111.74746045 109.00954198 112.56173914 109.82088755 113.40069294 110.65681934 C115 113 115 113 114.90447712 115.62227154 C113.55528263 119.16909219 111.04950951 121.42379826 108.36279297 123.99609375 C107.77582642 124.57400665 107.18885986 125.15191956 106.58410645 125.74734497 C105.31105273 126.99851285 104.03348094 128.24509654 102.75194931 129.48757935 C100.72566246 131.453533 98.71303104 133.4325572 96.7036438 135.41577148 C90.98929827 141.0505976 85.24984706 146.65960969 79.50439453 152.26269531 C75.98945364 155.69235821 72.48912943 159.1364014 68.99710464 162.58938599 C67.66234541 163.90297252 66.32178692 165.21069266 64.97546005 166.51242065 C63.09612388 168.32957955 61.23571808 170.16426998 59.37841797 172.00390625 C58.81534943 172.53911896 58.25228088 173.07433167 57.67214966 173.62576294 C55.94826963 175.28918093 55.94826963 175.28918093 54 178 C54.09554977 182.21866557 55.70066148 184.19846866 58.5625 187.1875 C62 190.80482897 62 190.80482897 62 193 C66.32878515 192.49863284 68.23829787 191.24295705 71.25 188.140625 C72.0234375 187.35429687 72.796875 186.56796875 73.59375 185.7578125 C74.3878125 184.93023437 75.181875 184.10265625 76 183.25 C76.7940625 182.43789062 77.588125 181.62578125 78.40625 180.7890625 C79.93855824 179.2210004 81.46673863 177.64889113 82.99023438 176.07226562 C84.61243142 174.39962125 86.24897283 172.74701037 87.90625 171.109375 C90.14139627 168.91860464 90.14139627 168.91860464 92.5 166 C94.88085385 163.14297538 97.33703034 160.58688481 100 158 C100.66 158.33 101.32 158.66 102 159 C100.71937515 160.7074998 99.38232443 162.37373596 98 164 C97.34 164 96.68 164 96 164 C95.79375 164.556875 95.5875 165.11375 95.375 165.6875 C93.84506239 168.26057688 91.98451878 169.72957724 89.66015625 171.57421875 C85.92076336 174.78569735 82.56700805 178.29897584 81 183 C80.34 183 79.68 183 79 183 C78.7525 183.61875 78.505 184.2375 78.25 184.875 C76.76259631 187.40358627 75.56321991 187.71839004 73 189 C71.90833725 190.93330603 71.90833725 190.93330603 71 193 C69.14857759 195.59199138 68.24973107 195.95217916 65.0625 196.5625 C62 196 62 196 60.125 193.4375 C59.82335937 192.89738281 59.52171875 192.35726562 59.2109375 191.80078125 C56.82326682 188.25008388 53.28526543 185.69519348 50 183 C50.34464907 177.85345785 53.19225832 175.30071115 56.72900391 171.91210938 C57.32572403 171.3244429 57.92244415 170.73677643 58.5372467 170.13130188 C59.83158153 168.85885478 61.13043469 167.59099106 62.43324661 166.32722473 C64.49313443 164.3276634 66.5393775 162.31503241 68.58236694 160.29821777 C74.39229246 154.56781703 80.22732458 148.8632193 86.06835938 143.16455078 C89.64165385 139.67653114 93.20033623 136.17413187 96.75071335 132.66279602 C98.10780084 131.32688234 99.47068818 129.99683455 100.83934402 128.67277527 C102.74980811 126.82448351 104.64135799 124.95865321 106.52978516 123.08789062 C107.10220444 122.54332718 107.67462372 121.99876373 108.26438904 121.43769836 C110.01581743 119.7468604 110.01581743 119.7468604 112 117 C111.82232907 112.41973061 109.83139243 110.33779913 106.66575623 107.19146729 C106.21162749 106.73462641 105.75749875 106.27778554 105.28960854 105.80710101 C103.76807789 104.28132918 102.23271883 102.77029112 100.69702148 101.25878906 C99.60242595 100.1669593 98.50871772 99.07423938 97.41583252 97.98069763 C94.44749589 95.01548485 91.4670676 92.0626977 88.4844768 89.11183262 C85.3687022 86.02477717 82.26463406 82.92599868 79.15943909 79.82830811 C73.27756044 73.96402587 67.38598461 68.10959218 61.49051291 62.25897861 C52.82614094 53.65982799 44.17445803 45.04792509 35.52512455 36.43365097 C34.89206707 35.8031629 34.25900959 35.17267483 33.60676855 34.52308106 C32.34514238 33.26655167 31.08354843 32.00998992 29.82198769 30.75339484 C26.11638805 27.06309571 22.4072788 23.37636927 18.6951617 19.69262648 C16.39280253 17.40721899 14.09234272 15.11990618 11.79226685 12.832201 C10.72080431 11.76743372 9.64846489 10.70354806 8.57521248 9.64058495 C7.11698871 8.19618026 5.66202345 6.74848804 4.20726013 5.30059814 C3.39000678 4.48946186 2.57275343 3.67832558 1.73073483 2.84260941 C0 1 0 1 0 0 Z " fill="#898989" transform="translate(203,38)"/>
<path d="M0 0 C0.53875354 0.27315127 1.07750708 0.54630255 1.63258648 0.82773113 C1.20902811 1.18060318 0.78546974 1.53347523 0.34907627 1.89704037 C-6.67393323 7.88656146 -13.12038126 14.4400727 -19.63645649 20.96737957 C-20.96421738 22.29378355 -22.29219051 23.61997512 -23.62035847 24.94597149 C-27.2069498 28.5280252 -30.79039653 32.11320903 -34.37312937 35.69912148 C-38.12762732 39.45615939 -41.88457376 43.21074762 -45.64112568 46.96573162 C-51.94231241 53.26510256 -58.24139526 59.56657151 -64.53928852 65.86923504 C-71.8231686 73.15856842 -79.11066007 80.44427644 -86.40001476 87.72813487 C-92.66356724 93.9871535 -98.92517411 100.24811353 -105.18515027 106.51070905 C-108.92207403 110.24919256 -112.65967198 113.9869953 -116.39902592 117.72304821 C-119.90939463 121.23053387 -123.41731874 124.74044605 -126.92335033 128.25226688 C-128.21168991 129.5419312 -129.50088584 130.83074069 -130.79098797 132.11864185 C-132.548182 133.87311355 -134.30228303 135.63061981 -136.05561543 137.38894939 C-136.5696108 137.90071405 -137.08360618 138.41247871 -137.61317718 138.93975139 C-139.81239435 141.15118871 -141.6289239 143.2199967 -143.36741352 145.82773113 C-144.19514465 144.19514465 -144.19514465 144.19514465 -144.36741352 141.82773113 C-142.6939486 139.64887567 -141.0725856 137.8586563 -139.1237154 135.9491148 C-138.25943378 135.07313325 -138.25943378 135.07313325 -137.37769192 134.1794551 C-135.43333419 132.21506711 -133.47148261 130.26913467 -131.50925922 128.32260418 C-130.11585743 126.92243123 -128.72352243 125.52119595 -127.33218098 124.11897564 C-123.54201168 120.30594723 -119.73611691 116.50898225 -115.9266026 112.71529269 C-111.94913926 108.75045396 -107.98385114 104.77346971 -104.01662922 100.79838848 C-97.35127479 94.12392748 -90.67542392 87.46010114 -83.99363422 80.80209637 C-76.25949194 73.09516699 -68.54352785 65.37038947 -60.83676177 57.63609189 C-54.22939541 51.00606434 -47.61237052 44.38579491 -40.98711747 37.77364093 C-37.02577162 33.82010596 -33.06791882 29.86323327 -29.11872005 25.89756107 C-25.40606143 22.17050067 -21.68146496 18.45580524 -17.9471426 14.7504549 C-16.57539701 13.385343 -15.20792996 12.01591684 -13.84500217 10.64200115 C-11.98995351 8.77337658 -10.12033876 6.9207042 -8.24602985 5.07142925 C-7.43371174 4.24238072 -7.43371174 4.24238072 -6.60498315 3.39658374 C-2.90131652 -0.21111923 -2.90131652 -0.21111923 0 0 Z " fill="#E1E1E1" transform="translate(202.367413520813,9.172268867492676)"/>
<path d="M0 0 C2.79651501 1.46817038 3.43411431 2.40553901 4.5 5.3125 C3.943125 4.796875 3.38625 4.28125 2.8125 3.75 C0.63149463 2.09789476 0.63149463 2.09789476 -1.77434731 2.38463879 C-5.48536193 3.64793493 -7.7320552 5.98811896 -10.42294312 8.72077942 C-11.28795565 9.57537366 -11.28795565 9.57537366 -12.17044318 10.44723243 C-14.10161087 12.36009366 -16.01816234 14.28695654 -17.93505859 16.21411133 C-19.31589069 17.58788701 -20.69756456 18.96081704 -22.08001709 20.33296204 C-25.83285312 24.06326793 -29.57282659 27.80622525 -33.30997419 31.55224061 C-36.42776887 34.67513814 -39.55173478 37.79182453 -42.67572653 40.90852088 C-50.04174898 48.25753402 -57.39742087 55.61679403 -64.74658203 62.98266602 C-72.33853659 70.59155931 -79.94675419 78.18390279 -87.56330621 85.76816732 C-94.09556703 92.27378003 -100.61812762 98.78900342 -107.13282645 105.31220263 C-111.02685726 109.21117457 -114.92441838 113.1064434 -118.83112717 116.99271584 C-122.50145655 120.64476229 -126.15953985 124.30864001 -129.8083725 127.98216057 C-131.15252026 129.3313389 -132.50098394 130.67623252 -133.85393906 132.01657867 C-135.69403509 133.84087106 -137.51818266 135.67972441 -139.33895874 137.52326965 C-139.88319374 138.05566893 -140.42742875 138.58806821 -140.98815572 139.13660079 C-142.63041222 140.76170086 -142.63041222 140.76170086 -144.5 143.3125 C-144.53812683 145.53315369 -144.53812683 145.53315369 -143.5 147.3125 C-142.9740625 148.42625 -142.9740625 148.42625 -142.4375 149.5625 C-142.128125 150.14 -141.81875 150.7175 -141.5 151.3125 C-143.15 150.6525 -144.8 149.9925 -146.5 149.3125 C-146.97722511 144.89523661 -146.92370787 142.90172533 -144.28792 139.23629189 C-143.25081621 138.16859673 -142.19408234 137.11975767 -141.12258911 136.08657837 C-140.25490916 135.2088686 -140.25490916 135.2088686 -139.36970031 134.31342733 C-137.42825654 132.3581181 -135.46284932 130.42885601 -133.49658203 128.49853516 C-132.0993332 127.10162381 -130.70361761 125.70317741 -129.30932617 124.30331421 C-125.51915534 120.50685916 -121.70768435 116.73246246 -117.89193201 112.96174288 C-113.90614033 109.01597285 -109.93975954 105.05078651 -105.97116089 101.08773804 C-99.3058066 94.43710103 -92.62789706 87.79930102 -85.94091797 81.17041016 C-76.50084534 71.81230047 -67.08362466 62.43145433 -57.67087007 53.04587865 C-50.37082231 45.76845085 -43.06498683 38.49683372 -35.7578125 31.2265625 C-34.97205164 30.44470723 -34.18629079 29.66285195 -33.376719 28.8573041 C-28.86634606 24.37022761 -24.35301633 19.88616191 -19.83522034 15.40655899 C-18.46454244 14.04682527 -17.0946942 12.68625465 -15.72571945 11.32480621 C-13.86327301 9.47300571 -11.99778155 7.62433084 -10.13137817 5.77651978 C-9.5846892 5.2316928 -9.03800022 4.68686582 -8.47474492 4.12552893 C-3.36040475 -0.92411131 -3.36040475 -0.92411131 0 0 Z " fill="#606060" transform="translate(203.5,7.6875)"/>
<path d="M0 0 C0.66 0.33 1.32 0.66 2 1 C-2.97379208 7.20080686 -8.05867727 13.15680822 -13.7734375 18.6953125 C-14.59408691 19.49146973 -15.41473633 20.28762695 -16.26025391 21.10791016 C-17.90845723 22.69146538 -19.56952129 24.26175202 -21.24365234 25.81787109 C-22.38374756 26.91349365 -22.38374756 26.91349365 -23.546875 28.03125 C-24.58086426 28.99901367 -24.58086426 28.99901367 -25.63574219 29.98632812 C-27.20104793 31.91903719 -27.20104793 31.91903719 -27.10693359 34.34570312 C-25.48090278 38.24473422 -22.79477249 40.58227673 -19.7421875 43.4375 C-18.46461782 44.67424582 -17.18728103 45.91123226 -15.91015625 47.1484375 C-13.88909781 49.08230916 -11.86338586 51.01100053 -9.83251953 52.93457031 C-7.87298175 54.79776851 -5.93203813 56.67884545 -3.9921875 58.5625 C-3.37769745 59.13347412 -2.7632074 59.70444824 -2.13009644 60.29272461 C-0.44091797 61.94140625 -0.44091797 61.94140625 2 65 C1.96114716 69.46569827 -0.01909678 71.78376232 -3 75 C-5.28115465 77.06576666 -7.61741871 79.05244057 -10 81 C-10.66 80.67 -11.32 80.34 -12 80 C-8.27653164 75.57905197 -4.70478962 71.42166518 0 68 C-1.63641942 63.7368153 -4.84626436 60.97143932 -8.06640625 57.87890625 C-9.28607766 56.68452082 -10.50547026 55.48985062 -11.72460938 54.29492188 C-13.64553911 52.42366923 -15.56949108 50.55575045 -17.4987793 48.69311523 C-19.36347982 46.88885032 -21.21552242 45.07232698 -23.06640625 43.25390625 C-23.6455629 42.70166885 -24.22471954 42.14943146 -24.82142639 41.58045959 C-27.08438316 39.34613786 -28.8444009 37.34302307 -30.16381836 34.43432617 C-29.91121527 30.68066683 -27.99462323 29.35087728 -25.3125 26.796875 C-24.5695166 26.07374115 -24.5695166 26.07374115 -23.81152344 25.33599854 C-22.22123048 23.79250456 -20.61217242 22.27059909 -19 20.75 C-16.90896147 18.75269547 -14.82674066 16.74653751 -12.75 14.734375 C-12.24799072 14.24972778 -11.74598145 13.76508057 -11.22875977 13.26574707 C-7.03513514 9.16109071 -3.4030994 4.77212795 0 0 Z " fill="#8F8F8F" transform="translate(247,185)"/>
<path d="M0 0 C0.66 0.33 1.32 0.66 2 1 C0.71937515 2.7074998 -0.61767557 4.37373596 -2 6 C-2.66 6 -3.32 6 -4 6 C-4.20625 6.556875 -4.4125 7.11375 -4.625 7.6875 C-6.15493761 10.26057688 -8.01548122 11.72957724 -10.33984375 13.57421875 C-14.07923664 16.78569735 -17.43299195 20.29897584 -19 25 C-19.66 25 -20.32 25 -21 25 C-21.2475 25.61875 -21.495 26.2375 -21.75 26.875 C-23.23740369 29.40358627 -24.43678009 29.71839004 -27 31 C-28.09166275 32.93330603 -28.09166275 32.93330603 -29 35 C-30.85142241 37.59199138 -31.75026893 37.95217916 -34.9375 38.5625 C-38 38 -38 38 -39.875 35.4375 C-40.17664063 34.89738281 -40.47828125 34.35726562 -40.7890625 33.80078125 C-43.17673318 30.25008388 -46.71473457 27.69519348 -50 25 C-49.67 23.68 -49.34 22.36 -49 21 C-48.67 21.680625 -48.34 22.36125 -48 23.0625 C-45.63934177 26.52971677 -42.88220122 28.8182473 -39.64453125 31.44921875 C-39.10183594 31.96097656 -38.55914062 32.47273438 -38 33 C-38 33.66 -38 34.32 -38 35 C-33.67121485 34.49863284 -31.76170213 33.24295705 -28.75 30.140625 C-27.9765625 29.35429687 -27.203125 28.56796875 -26.40625 27.7578125 C-25.21515625 26.51644531 -25.21515625 26.51644531 -24 25.25 C-23.2059375 24.43789062 -22.411875 23.62578125 -21.59375 22.7890625 C-20.06144176 21.2210004 -18.53326137 19.64889113 -17.00976562 18.07226562 C-15.38756858 16.39962125 -13.75102717 14.74701037 -12.09375 13.109375 C-9.85860373 10.91860464 -9.85860373 10.91860464 -7.5 8 C-5.11914615 5.14297538 -2.66296966 2.58688481 0 0 Z " fill="#484848" transform="translate(303,196)"/>
<path d="M0 0 C0.66 0.33 1.32 0.66 2 1 C0.68 1.99 -0.64 2.98 -2 4 C-1.34 2.68 -0.68 1.36 0 0 Z M-4 4 C-3.34 4.33 -2.68 4.66 -2 5 C-4.97 7.475 -4.97 7.475 -8 10 C-6.84826645 7.53199953 -5.95216435 5.95216435 -4 4 Z M-10 10 C-9.34 10.33 -8.68 10.66 -8 11 C-8.42410156 11.4125 -8.84820312 11.825 -9.28515625 12.25 C-9.87167969 12.8275 -10.45820313 13.405 -11.0625 14 C-11.63097656 14.556875 -12.19945312 15.11375 -12.78515625 15.6875 C-14.65298197 17.63768135 -16.41247379 19.62547926 -18.171875 21.671875 C-21.77894432 25.80361798 -25.57216865 29.70112166 -29.46484375 33.5625 C-30.14301651 34.23925781 -30.82118927 34.91601562 -31.51991272 35.61328125 C-33.65674305 37.74457675 -35.79704823 39.87234218 -37.9375 42 C-39.39932123 43.45679779 -40.86091187 44.91382701 -42.32226562 46.37109375 C-45.878854 49.91673973 -49.43856016 53.45922739 -53 57 C-53 52.83991091 -51.29799047 51.76711021 -48.5 48.75 C-48.04367187 48.25765869 -47.58734375 47.76531738 -47.1171875 47.25805664 C-43.94222845 43.87856548 -40.61361685 40.7990915 -37.07421875 37.8125 C-30.85313693 32.37637577 -25.20868192 26.39923779 -20 20 C-18.3540349 18.31288577 -16.68762851 16.6454378 -15 15 C-14.071875 14.071875 -13.14375 13.14375 -12.1875 12.1875 C-11.465625 11.465625 -10.74375 10.74375 -10 10 Z " fill="#0E0E0E" transform="translate(369,176)"/>
<path d="M0 0 C3.6889783 1.84448915 4.6242878 6.29008759 6 10 C10.14593972 23.31307311 8.90569972 38.09120621 4 51 C3.01 51.495 3.01 51.495 2 52 C2.33 49.03 2.66 46.06 3 43 C3.66 43 4.32 43 5 43 C4.93080489 38.83682442 4.8426887 34.67459374 4.73754883 30.51220703 C4.70443709 29.0982551 4.67636284 27.68417536 4.65356445 26.27001953 C4.61976225 24.22894177 4.56744036 22.18902072 4.51171875 20.1484375 C4.48553467 18.92302246 4.45935059 17.69760742 4.43237305 16.43505859 C3.96197003 12.69786466 2.77810494 10.28959469 1 7 C0.3125 3.125 0.3125 3.125 0 0 Z " fill="#BFBFBF" transform="translate(251,125)"/>
<path d="M0 0 C0.495 1.485 0.495 1.485 1 3 C0.0713916 3.91813477 -0.8572168 4.83626953 -1.81396484 5.78222656 C-5.2593071 9.19135676 -8.69801645 12.60711141 -12.13476562 16.02490234 C-13.62287317 17.5029551 -15.11277119 18.97920748 -16.60449219 20.45361328 C-18.74888283 22.57373319 -20.88674198 24.70025348 -23.0234375 26.828125 C-23.69120209 27.48556702 -24.35896667 28.14300903 -25.04696655 28.82037354 C-25.6674588 29.44071472 -26.28795105 30.06105591 -26.92724609 30.70019531 C-27.47351654 31.24202454 -28.01978699 31.78385376 -28.58261108 32.34210205 C-30.10294477 34.12041291 -31.04214031 35.87342486 -32 38 C-32.68223572 35.72480774 -32.68223572 35.72480774 -33 33 C-31.8674469 31.1459198 -31.8674469 31.1459198 -30.08422852 29.40307617 C-29.42346817 28.74276901 -28.76270782 28.08246185 -28.08192444 27.40214539 C-27.35492844 26.7061171 -26.62793243 26.01008881 -25.87890625 25.29296875 C-25.14502182 24.56757401 -24.41113739 23.84217926 -23.65501404 23.09480286 C-21.30452594 20.77793888 -18.93405428 18.48277692 -16.5625 16.1875 C-14.96673963 14.62182695 -13.37232045 13.05478569 -11.77929688 11.48632812 C-7.8682968 7.64153214 -3.94067831 3.81435891 0 0 Z " fill="#1A1A1A" transform="translate(186,184)"/>
<path d="M0 0 C0.33 0.99 0.66 1.98 1 3 C-2.17106896 6.27012915 -5.35519511 9.52675523 -8.55200195 12.77172852 C-9.63705108 13.87686215 -10.71847921 14.98556338 -11.79614258 16.09790039 C-13.34813483 17.69854893 -14.91280663 19.28580741 -16.48046875 20.87109375 C-16.95775925 21.36902939 -17.43504974 21.86696503 -17.92680359 22.37998962 C-20.81769226 25.27277659 -22.88934327 26.65771693 -27 27 C-27 27.66 -27 28.32 -27 29 C-27.66 28.67 -28.32 28.34 -29 28 C-28.67 27.34 -28.34 26.68 -28 26 C-27.34 26 -26.68 26 -26 26 C-25.67 25.01 -25.34 24.02 -25 23 C-22.61293307 20.34770341 -20.48090246 18.2748014 -17.375 16.5 C-14.56354706 14.72434551 -13.6182972 12.85128554 -12 10 C-11.34 10 -10.68 10 -10 10 C-9.67 9.01 -9.34 8.02 -9 7 C-6.25147379 3.95433582 -3.82622743 1.5588334 0 0 Z " fill="#494949" transform="translate(339,162)"/>
<path d="M0 0 C3.85072871 0.47792732 7.01299784 1.62752354 10.25 3.8125 C11.5118973 7.5981919 12.13370082 10.91178934 11.25 14.8125 C9.21853331 17.80383471 6.8551935 20.31364093 4.25 22.8125 C4.25 21.8225 4.25 20.8325 4.25 19.8125 C4.98669922 19.15314453 4.98669922 19.15314453 5.73828125 18.48046875 C7.91712553 16.07642093 7.54971288 14.30436496 7.4375 11.125 C7.41042969 10.13113281 7.38335937 9.13726562 7.35546875 8.11328125 C7.30326172 6.97439453 7.30326172 6.97439453 7.25 5.8125 C5.93 5.1525 4.61 4.4925 3.25 3.8125 C3.25 3.1525 3.25 2.4925 3.25 1.8125 C-0.99602552 1.72215903 -2.90260105 2.10186481 -6.21875 4.8828125 C-8.4581326 7.14345506 -10.63344087 9.43677037 -12.75 11.8125 C-13.41 11.4825 -14.07 11.1525 -14.75 10.8125 C-5.59106924 0.10477302 -5.59106924 0.10477302 0 0 Z " fill="#A8A8A8" transform="translate(201.75,142.1875)"/>
<path d="M0 0 C0.33 0.66 0.66 1.32 1 2 C-4.25889786 8.28502427 -9.96431314 14.02020466 -15.84399414 19.71899414 C-16.47942139 20.34281982 -17.11484863 20.96664551 -17.76953125 21.609375 C-18.34292236 22.16592773 -18.91631348 22.72248047 -19.50708008 23.29589844 C-21.0803015 25.09166059 -22.030337 26.82752775 -23 29 C-23.82202148 26.85864258 -23.82202148 26.85864258 -24 24 C-22.34499108 21.80550342 -20.82514713 20.12369431 -18.84765625 18.26171875 C-18.31353622 17.73608841 -17.7794162 17.21045807 -17.22911072 16.66889954 C-15.52046873 14.99383583 -13.79216266 13.34082224 -12.0625 11.6875 C-10.90033497 10.55542862 -9.73950966 9.42198015 -8.58007812 8.28710938 C-5.73534947 5.50852332 -2.87280504 2.74953581 0 0 Z " fill="#E2E2E2" transform="translate(213,193)"/>
<path d="M0 0 C-0.89138672 -0.10284302 -0.89138672 -0.10284302 -1.80078125 -0.20776367 C-8.20842039 -0.90346088 -14.55627229 -1.24481378 -21 -1.3125 C-21.92039063 -1.34150391 -22.84078125 -1.37050781 -23.7890625 -1.40039062 C-30.68250626 -1.46349962 -35.77828487 0.1423349 -42 3 C-42.99 3.33 -43.98 3.66 -45 4 C-45 3.01 -45 2.02 -45 1 C-43.68 1 -42.36 1 -41 1 C-41 0.34 -41 -0.32 -41 -1 C-39.02 -1 -37.04 -1 -35 -1 C-35 -1.66 -35 -2.32 -35 -3 C-9.27985075 -6.18656716 -9.27985075 -6.18656716 0 0 Z " fill="#464646" transform="translate(220,99)"/>
<path d="M0 0 C0.33 0.99 0.66 1.98 1 3 C-9.23 13.23 -19.46 23.46 -30 34 C-30 29.38998588 -27.11512887 27.19746707 -24 24 C-22.29318732 22.49582262 -20.54724125 21.04990226 -18.79296875 19.6015625 C-16.15660669 17.24664215 -13.92933596 14.58650906 -11.63671875 11.90234375 C-9.52857103 9.45206227 -7.38638401 7.18183681 -5 5 C-4.34 5 -3.68 5 -3 5 C-3 4.34 -3 3.68 -3 3 C-1.5 1.375 -1.5 1.375 0 0 Z " fill="#131313" transform="translate(315,186)"/>
<path d="M0 0 C0.66 0 1.32 0 2 0 C2.66 1.65 3.32 3.3 4 5 C4.66 5 5.32 5 6 5 C9.39700646 12.24694712 9.26596656 20.15398656 9 28 C8.97164062 28.84691406 8.94328125 29.69382813 8.9140625 30.56640625 C8.85992187 31.36949219 8.80578125 32.17257813 8.75 33 C8.68039063 34.0828125 8.68039063 34.0828125 8.609375 35.1875 C8 37 8 37 5.953125 38.25 C5.30859375 38.4975 4.6640625 38.745 4 39 C4.3196875 38.23171875 4.639375 37.4634375 4.96875 36.671875 C7.44887725 27.84111889 7.85560926 16.01122386 4.65625 7.37109375 C3.23552206 5.06911239 1.76975976 3.03838401 0 1 C0 0.67 0 0.34 0 0 Z " fill="#9C9C9C" transform="translate(230,130)"/>
<path d="M0 0 C1.9375 0.3125 1.9375 0.3125 4 1 C4.33 1.99 4.66 2.98 5 4 C5.99 4.33 6.98 4.66 8 5 C9.578125 6.6015625 9.578125 6.6015625 11.25 8.625 C13.68666386 11.53545961 16.19396238 14.13400577 19 16.6875 C21.98288968 19.62357303 21.98288968 19.62357303 22.125 22.75 C20.99764219 25.00471563 19.93559722 26.40102839 18 28 C17.34 27.67 16.68 27.34 16 27 C16.515625 26.608125 17.03125 26.21625 17.5625 25.8125 C19.26303473 24.08187804 19.26303473 24.08187804 18.86328125 21.68359375 C17.77415541 18.29794012 16.17459364 16.7088314 13.625 14.25 C12.83351563 13.47140625 12.04203125 12.6928125 11.2265625 11.890625 C9.06009417 9.81281239 9.06009417 9.81281239 6 9 C2 4.54285714 2 4.54285714 2 2 C1.34 2 0.68 2 0 2 C0 1.34 0 0.68 0 0 Z " fill="#6B6B6B" transform="translate(326,131)"/>
<path d="M0 0 C0.66 0.33 1.32 0.66 2 1 C0.71937515 2.7074998 -0.61767557 4.37373596 -2 6 C-2.66 6 -3.32 6 -4 6 C-4.309375 6.8353125 -4.309375 6.8353125 -4.625 7.6875 C-6.15493761 10.26057688 -8.01548122 11.72957724 -10.33984375 13.57421875 C-14.07923664 16.78569735 -17.43299195 20.29897584 -19 25 C-24.25714286 29 -24.25714286 29 -28 29 C-24.77734375 25.77734375 -21.5546875 22.5546875 -18.33203125 19.33203125 C-17.76758301 18.76693848 -17.20313477 18.2018457 -16.62158203 17.61962891 C-15.16252254 16.16232678 -13.69689959 14.71160312 -12.23046875 13.26171875 C-9.88191706 10.94329967 -9.88191706 10.94329967 -7.5 8 C-5.11914615 5.14297538 -2.66296966 2.58688481 0 0 Z " fill="#707070" transform="translate(303,196)"/>
<path d="M0 0 C0.66 0.33 1.32 0.66 2 1 C-0.11820061 5.12491697 -2.06729248 6.68071095 -6 9 C-6.69748583 10.31747324 -7.36959957 11.64914193 -8 13 C-8.99 13.33 -9.98 13.66 -11 14 C-12.03789581 15.64333504 -13.03567924 17.31243867 -14 19 C-15.5625 20.8125 -15.5625 20.8125 -17 22 C-17.66 22 -18.32 22 -19 22 C-19 22.66 -19 23.32 -19 24 C-19.66 23.67 -20.32 23.34 -21 23 C-20.505 21.515 -20.505 21.515 -20 20 C-19.01 19.67 -18.02 19.34 -17 19 C-16.525625 18.195625 -16.05125 17.39125 -15.5625 16.5625 C-13.90447019 13.84333111 -12.91563061 13.10592885 -10 12 C-10 11.34 -10 10.68 -10 10 C-9.34 10 -8.68 10 -8 10 C-7.34 8.68 -6.68 7.36 -6 6 C-5.34 6 -4.68 6 -4 6 C-4 5.34 -4 4.68 -4 4 C-3.34 4 -2.68 4 -2 4 C-2 3.34 -2 2.68 -2 2 C-1.34 2 -0.68 2 0 2 C0 1.34 0 0.68 0 0 Z " fill="#6B6B6B" transform="translate(131,171)"/>
<path d="M0 0 C0.66 0.33 1.32 0.66 2 1 C-1.63 4.63 -5.26 8.26 -9 12 C-9 9 -9 9 -6.75 6.5625 C-5.8425 5.716875 -4.935 4.87125 -4 4 C-3.236875 3.236875 -2.47375 2.47375 -1.6875 1.6875 C-1.130625 1.130625 -0.57375 0.57375 0 0 Z M-12 12 C-11.34 12.33 -10.68 12.66 -10 13 C-14.29 17.29 -18.58 21.58 -23 26 C-23 21.82308582 -20.77013484 19.86318847 -18 17 C-16.05228995 15.24842937 -14.05675499 13.62627139 -12 12 Z " fill="#0D0D0D" transform="translate(123,34)"/>
<path d="M0 0 C0 0.66 0 1.32 0 2 C1.32 2.33 2.64 2.66 4 3 C1.3333581 4.33332095 -0.16680303 3.67102033 -3 3 C-3 2.34 -3 1.68 -3 1 C-12.12452285 -0.52075381 -19.96922274 0.14072233 -29 2 C-29 1.34 -29 0.68 -29 0 C-19.80001451 -3.50475638 -9.27988886 -2.96956444 0 0 Z " fill="#4B4B4B" transform="translate(217,119)"/>
<path d="M0 0 C0 3 0 3 -2.375 5.6875 C-5 8 -5 8 -7 8 C-7.24492187 8.57234375 -7.48984375 9.1446875 -7.7421875 9.734375 C-9.21110099 12.38024402 -10.95348244 14.14853139 -13.125 16.25 C-13.84945312 16.95640625 -14.57390625 17.6628125 -15.3203125 18.390625 C-15.87460938 18.92171875 -16.42890625 19.4528125 -17 20 C-17.66 19.67 -18.32 19.34 -19 19 C-18.43410156 18.45730469 -17.86820313 17.91460937 -17.28515625 17.35546875 C-16.55167969 16.64003906 -15.81820312 15.92460937 -15.0625 15.1875 C-13.96615234 14.12595703 -13.96615234 14.12595703 -12.84765625 13.04296875 C-10.79165354 11.04463837 -10.79165354 11.04463837 -10 8 C-9.34 8 -8.68 8 -8 8 C-7.6596875 7.1028125 -7.6596875 7.1028125 -7.3125 6.1875 C-5.65731747 3.42886244 -3.79815679 2.50669981 -1 1 C-0.67 0.67 -0.34 0.34 0 0 Z " fill="#B5B5B5" transform="translate(179,161)"/>
<path d="M0 0 C0.66 0.33 1.32 0.66 2 1 C1.04956626 2.33897583 0.08940853 3.67105427 -0.875 5 C-1.40867188 5.7425 -1.94234375 6.485 -2.4921875 7.25 C-3.23855469 8.11625 -3.23855469 8.11625 -4 9 C-4.66 9 -5.32 9 -6 9 C-6.33 9.99 -6.66 10.98 -7 12 C-9.5 13.5 -9.5 13.5 -12 15 C-12.33 15.99 -12.66 16.98 -13 18 C-13.99 18 -14.98 18 -16 18 C-16 17.34 -16 16.68 -16 16 C-15.34 16 -14.68 16 -14 16 C-13.7525 15.38125 -13.505 14.7625 -13.25 14.125 C-11.79371361 11.64931313 -10.62187494 11.04874998 -8 10 C-8 9.34 -8 8.68 -8 8 C-7.34 8 -6.68 8 -6 8 C-5.34 6.68 -4.68 5.36 -4 4 C-3.34 4 -2.68 4 -2 4 C-1.34 2.68 -0.68 1.36 0 0 Z " fill="#797979" transform="translate(153,149)"/>
<path d="M0 0 C3.34144695 1.67072348 4.71337081 4.63763857 6 8 C6.53964653 11.74481987 6.51509273 15.41048632 6.4375 19.1875 C6.44458984 20.17169922 6.45167969 21.15589844 6.45898438 22.16992188 C6.38880247 30.11127474 6.38880247 30.11127474 3 34 C3 32.02 3 30.04 3 28 C3.66 28 4.32 28 5 28 C4.93622007 15.34698956 4.93622007 15.34698956 0.83984375 3.56640625 C0 2 0 2 0 0 Z " fill="#323232" transform="translate(231,133)"/>
<path d="M0 0 C3.08315385 -0.08733513 6.16598827 -0.14050127 9.25 -0.1875 C10.12269531 -0.21263672 10.99539062 -0.23777344 11.89453125 -0.26367188 C18.41598332 -0.33834499 18.41598332 -0.33834499 21.609375 1.51171875 C22.06828125 2.00285156 22.5271875 2.49398437 23 3 C21.74123047 2.75636719 21.74123047 2.75636719 20.45703125 2.5078125 C16.81874714 1.97337529 13.36319335 1.86723718 9.6875 1.875 C8.45386719 1.87242188 7.22023437 1.86984375 5.94921875 1.8671875 C3.11245739 1.66268264 3.11245739 1.66268264 2 3 C0.00041636 3.04080783 -2.00045254 3.04254356 -4 3 C-4 3.66 -4 4.32 -4 5 C-4.66 4.67 -5.32 4.34 -6 4 C-5.67 3.34 -5.34 2.68 -5 2 C-3.35 2 -1.7 2 0 2 C0 1.34 0 0.68 0 0 Z " fill="#BFBFBF" transform="translate(192,116)"/>
<path d="M0 0 C0.33 0 0.66 0 1 0 C1.46450943 6.50313209 0.32575612 10.4174808 -3 16 C-3.66 16 -4.32 16 -5 16 C-5 17.32 -5 18.64 -5 20 C-5.99 20 -6.98 20 -8 20 C-6.36246787 14.33161954 -6.36246787 14.33161954 -4.53125 12.65625 C-2.44552153 10.40025798 -2.04439887 8.2749478 -1.3125 5.3125 C-1.06113281 4.31863281 -0.80976563 3.32476562 -0.55078125 2.30078125 C-0.36902344 1.54152344 -0.18726563 0.78226563 0 0 Z " fill="#464646" transform="translate(257,165)"/>
<path d="M0 0 C0.66 0.33 1.32 0.66 2 1 C1.33871094 1.60328125 0.67742187 2.2065625 -0.00390625 2.828125 C-0.84824219 3.62734375 -1.69257812 4.4265625 -2.5625 5.25 C-3.40941406 6.03890625 -4.25632812 6.8278125 -5.12890625 7.640625 C-7.26016205 9.78175269 -7.26016205 9.78175269 -6.84375 12.15625 C-5.93971505 14.13173378 -5.02609754 16.08461793 -4 18 C-6.475 17.01 -6.475 17.01 -9 16 C-9.54772931 13.13963581 -9.76496765 11.75988329 -9 9 C-6.29309581 5.66517846 -3.22832119 2.82478104 0 0 Z " fill="#666666" transform="translate(66,141)"/>
<path d="M0 0 C0.66 0.33 1.32 0.66 2 1 C-0.11905463 3.17277714 -2.24472878 5.33826908 -4.375 7.5 C-4.97828125 8.12003906 -5.5815625 8.74007812 -6.203125 9.37890625 C-6.78320312 9.96542969 -7.36328125 10.55195313 -7.9609375 11.15625 C-8.49509277 11.70087891 -9.02924805 12.24550781 -9.57958984 12.80664062 C-11 14 -11 14 -13 14 C-13 12 -13 12 -11 9.8125 C-7.4588514 6.40401691 -3.723568 3.20614912 0 0 Z " fill="#0F0F0F" transform="translate(301,245)"/>
<path d="M0 0 C1.32 0.33 2.64 0.66 4 1 C0 5 -4 9 -8 13 C-7.52354792 8.71193127 -6.34097516 6.73352513 -3 4 C-2.34 4 -1.68 4 -1 4 C-0.67 2.68 -0.34 1.36 0 0 Z " fill="#101010" transform="translate(229,293)"/>
<path d="M0 0 C2.89608593 -0.05413245 5.79115195 -0.09373641 8.6875 -0.125 C9.91243164 -0.15013672 9.91243164 -0.15013672 11.16210938 -0.17578125 C15.57092929 -0.2114802 18.98731576 -0.07580814 23 2 C23 2.33 23 2.66 23 3 C22.42894531 2.93941406 21.85789063 2.87882812 21.26953125 2.81640625 C14.18848306 2.08466041 7.09925906 1.52298617 0 1 C0 0.67 0 0.34 0 0 Z " fill="#808080" transform="translate(197,96)"/>
<path d="M0 0 C1.75 0.125 1.75 0.125 4 1 C5.3726682 2.97321053 6.70427617 4.97543152 8 7 C8.7425 7.556875 9.485 8.11375 10.25 8.6875 C10.8275 9.120625 11.405 9.55375 12 10 C12 10.99 12 11.98 12 13 C10 13 10 13 8.37890625 11.42578125 C5.23896052 7.77264008 2.27334011 4.27922844 0 0 Z " fill="#ABABAB" transform="translate(64,160)"/>
<path d="M0 0 C0.66 0.33 1.32 0.66 2 1 C-1.60575001 5.58913637 -5.47384007 9.32167983 -10 13 C-10.66 12.67 -11.32 12.34 -12 12 C-8.27653164 7.57905197 -4.70478962 3.42166518 0 0 Z " fill="#646464" transform="translate(247,253)"/>
<path d="M0 0 C-5.46037442 3.44240996 -10.77274933 5.34608232 -17 7 C-13.79290803 3.27977332 -10.54228658 1.76644478 -6 0 C-3.50907189 -1.24546405 -2.58919267 -0.7767578 0 0 Z " fill="#BDBDBD" transform="translate(186,100)"/>
<path d="M0 0 C0.33 0.66 0.66 1.32 1 2 C-0.07192184 3.3218362 -1.15802695 4.63217927 -2.25 5.9375 C-2.85328125 6.66839844 -3.4565625 7.39929688 -4.078125 8.15234375 C-6.10741134 10.10326334 -7.254407 10.61731779 -10 11 C-6.79239749 7.19364503 -3.59253891 3.45436433 0 0 Z " fill="#1D1D1D" transform="translate(197,173)"/>
<path d="M0 0 C0.66 0 1.32 0 2 0 C2.66 1.65 3.32 3.3 4 5 C4.66 5 5.32 5 6 5 C8.24828052 9.49656104 8.16682272 13.07872966 8 18 C7.67 18 7.34 18 7 18 C6.95875 17.05125 6.9175 16.1025 6.875 15.125 C6.25194923 10.44732655 3.78625285 6.94705738 1.27734375 3.0390625 C0 1 0 1 0 0 Z " fill="#BFBFBF" transform="translate(230,130)"/>
<path d="M0 0 C1.32 0.33 2.64 0.66 4 1 C4.33 2.32 4.66 3.64 5 5 C6.98 5 8.96 5 11 5 C10.01 6.485 10.01 6.485 9 8 C4.58848129 6.65203595 2.61191481 4.77276583 0 1 C0 0.67 0 0.34 0 0 Z " fill="#C6C6C6" transform="translate(194,290)"/>
<path d="M0 0 C2.64492308 1.32246154 2.97833787 2.64535898 4.1875 5.3125 C4.55230469 6.09238281 4.91710937 6.87226563 5.29296875 7.67578125 C6.07807525 10.2566562 5.89937661 11.49663962 5 14 C1.93757784 9.15939723 0.46588495 5.70709064 0 0 Z " fill="#A2A2A2" transform="translate(251,125)"/>
<path d="M0 0 C0.33 0.99 0.66 1.98 1 3 C-1.97 5.97 -4.94 8.94 -8 12 C-8.66 11.67 -9.32 11.34 -10 11 C-6.7 7.37 -3.4 3.74 0 0 Z " fill="#1A1A1A" transform="translate(245,190)"/>
<path d="M0 0 C0.33 0.99 0.66 1.98 1 3 C-1.31 5.31 -3.62 7.62 -6 10 C-6.99 9.67 -7.98 9.34 -9 9 C-7.71034824 7.62437146 -6.37310707 6.29233607 -5 5 C-4.34 5 -3.68 5 -3 5 C-3 4.34 -3 3.68 -3 3 C-1.5 1.375 -1.5 1.375 0 0 Z " fill="#1C1C1C" transform="translate(315,186)"/>
<path d="M0 0 C0.33 0.66 0.66 1.32 1 2 C0.34 2 -0.32 2 -1 2 C-1.33 3.32 -1.66 4.64 -2 6 C-6.75 5.125 -6.75 5.125 -9 4 C-8.67 3.34 -8.34 2.68 -8 2 C-7.4225 2.226875 -6.845 2.45375 -6.25 2.6875 C-3.87827523 3.26505193 -3.87827523 3.26505193 -1.75 1.5625 C-1.1725 1.046875 -0.595 0.53125 0 0 Z " fill="#3D3D3D" transform="translate(207,294)"/>
<path d="M0 0 C1.65 0.33 3.3 0.66 5 1 C5 1.99 5 2.98 5 4 C2.69 4 0.38 4 -2 4 C-1.34 2.68 -0.68 1.36 0 0 Z " fill="#0A0A0A" transform="translate(229,306)"/>
<path d="M0 0 C0.99 0.33 1.98 0.66 3 1 C1.72553565 3.5489287 0.53636507 3.80641644 -2 5 C-2.99 5.66 -3.98 6.32 -5 7 C-5 6.01 -5 5.02 -5 4 C-2.6875 1.75 -2.6875 1.75 0 0 Z " fill="#101010" transform="translate(262,290)"/>
<path d="M0 0 C0 0.99 0 1.98 0 3 C-5.14285714 7 -5.14285714 7 -9 7 C-7.88121617 5.82737096 -6.75476949 4.66204862 -5.625 3.5 C-4.68527344 2.52546875 -4.68527344 2.52546875 -3.7265625 1.53125 C-2 0 -2 0 0 0 Z " fill="#545454" transform="translate(284,218)"/>
<path d="M0 0 C1.423125 0.2784375 1.423125 0.2784375 2.875 0.5625 C5.89868793 1.28686632 5.89868793 1.28686632 8 0 C7.34 1.65 6.68 3.3 6 5 C4.68 5 3.36 5 2 5 C1.34 3.35 0.68 1.7 0 0 Z " fill="#3E3E3E" transform="translate(100,197)"/>
<path d="M0 0 C3.17379466 1.58689733 4.78370667 4.75431117 6 8 C5.61328125 10.23046875 5.61328125 10.23046875 5 12 C4.16180842 10.37750059 3.3295884 8.75191503 2.5 7.125 C2.0359375 6.22007812 1.571875 5.31515625 1.09375 4.3828125 C0 2 0 2 0 0 Z " fill="#4F4F4F" transform="translate(231,133)"/>
<path d="M0 0 C2.4375 0.8125 2.4375 0.8125 5 2 C5.33 2.99 5.66 3.98 6 5 C6.66 5 7.32 5 8 5 C7.67 5.66 7.34 6.32 7 7 C5.68 6.34 4.36 5.68 3 5 C3 4.34 3 3.68 3 3 C2.01 3 1.02 3 0 3 C0 2.01 0 1.02 0 0 Z " fill="#919191" transform="translate(233,105)"/>
<path d="M0 0 C0.66 0.33 1.32 0.66 2 1 C-0.625 5.875 -0.625 5.875 -4 7 C-4 6.01 -4 5.02 -4 4 C-3.34 4 -2.68 4 -2 4 C-2 3.34 -2 2.68 -2 2 C-1.34 2 -0.68 2 0 2 C0 1.34 0 0.68 0 0 Z " fill="#646464" transform="translate(131,171)"/>
<path d="M0 0 C0.99 0.33 1.98 0.66 3 1 C0.69 3.31 -1.62 5.62 -4 8 C-4 4.09161134 -2.49432124 2.88405893 0 0 Z " fill="#131313" transform="translate(321,180)"/>
<path d="M0 0 C0.33 0 0.66 0 1 0 C1 1.98 1 3.96 1 6 C-0.98 6.99 -0.98 6.99 -3 8 C-1.125 2.25 -1.125 2.25 0 0 Z " fill="#BFBFBF" transform="translate(237,161)"/>
<path d="M0 0 C0.66 0 1.32 0 2 0 C2 0.66 2 1.32 2 2 C2.99 2.33 3.98 2.66 5 3 C5.6875 5.0625 5.6875 5.0625 6 7 C5.01 6.67 4.02 6.34 3 6 C3 5.34 3 4.68 3 4 C2.34 4 1.68 4 1 4 C0.67 2.68 0.34 1.36 0 0 Z " fill="#8F8F8F" transform="translate(241,112)"/>
</svg>
